<svg xmlns="http://www.w3.org/2000/svg" xmlns:xlink="http://www.w3.org/1999/xlink" viewBox="0 0 334.87 99.22"><defs><style>.cls-1{fill:#303030;}.cls-2{fill:url(#linear-gradient);}.cls-3{fill:none;stroke-miterlimit:10;stroke-width:4px;stroke:url(#linear-gradient-2);}</style><linearGradient id="linear-gradient" x1="92.34" y1="40.5" x2="135.34" y2="40.5" gradientUnits="userSpaceOnUse"><stop offset="0" stop-color="#209cff"/><stop offset="1" stop-color="#68e0cf"/></linearGradient><linearGradient id="linear-gradient-2" x1="73.34" x2="154.34" xlink:href="#linear-gradient"/></defs><title>dark</title><g id="Layer_2" data-name="Layer 2"><g id="Layer_1-2" data-name="Layer 1"><path class="cls-1" d="M63,56.91V74.79H0V60.68L31.61,24.29H.88V6.53H61.71v14L30.1,56.91Z"/><path class="cls-1" d="M241,6.53V74.79H218.25v-7.3a24.42,24.42,0,0,1-9.07,6.29A29.51,29.51,0,0,1,198,75.92q-13.22,0-21.09-7.81T169,44.69V6.53h23.93V40.79q0,7.68,2.89,11.2c1.93,2.36,4.74,3.53,8.44,3.53a11.91,11.91,0,0,0,9.26-4q3.58-4,3.59-12.15V6.53Z"/><path class="cls-1" d="M334.87,6.53V99.22H310.94V68.74q-6.93,7.19-19,7.18A33.66,33.66,0,0,1,275,71.58a31.68,31.68,0,0,1-12.09-12.34,37.46,37.46,0,0,1-4.47-18.58,37.49,37.49,0,0,1,4.47-18.58A31.68,31.68,0,0,1,275,9.74,33.66,33.66,0,0,1,291.92,5.4q13.47,0,20.15,7.93V6.53Zm-27.58,46q4-4.35,4-11.9t-4-11.9a14.44,14.44,0,0,0-20.66,0q-4,4.35-4,11.9t4,11.9a14.44,14.44,0,0,0,20.66,0Z"/><circle class="cls-2" cx="113.84" cy="40.5" r="21.5"/><circle class="cls-3" cx="113.84" cy="40.5" r="38.5"/></g></g></svg>